<?xml version="1.0" encoding="UTF-8"?>
<svg width="70px" height="98px" viewBox="0 0 70 98" version="1.1" xmlns="http://www.w3.org/2000/svg" xmlns:xlink="http://www.w3.org/1999/xlink">
    <title>DDBAA383-8060-4A85-96D1-E1B31D19B5C2</title>
    <g id="Content-Hub" stroke="none" stroke-width="1" fill="none" fill-rule="evenodd">
        <g id="content-hub-desktop/default" transform="translate(-332.000000, -407.000000)">
            <g id="cateogries" transform="translate(308.000000, 397.000000)">
                <g id="d/content-hub/category-icon+label-copy">
                    <g id="d/content-hub/category-icon-label">
                        <g id="d/content-hub/category-icon/home">
                            <g id="body-care" transform="translate(25.000000, 11.000000)">
                                <polygon id="Path" fill="#B9D1ED" fill-rule="nonzero" points="17.32 29.12 5.91 36.34 2 37.72 1 40.74 2 94.15 63 95.18 66 92.15 66 41.75 65 37.72 55.76 33.39 52 30.66 51 26.63 39.47 25.18 20.9 26.16"></polygon>
                                <path d="M50.76,27.34 C50.76,27.34 50.76,28.9 52.87,30.98 C54.8003687,32.6196386 56.9265881,34.0136056 59.2,35.13 C59.2,35.13 65.53,37.73 66.06,38.25 C66.59,38.77 67.1200001,39.81 67.1200001,41.88 L67.1200001,91.81 C67.1200001,92.6161551 66.7958678,93.3884524 66.2202143,93.9528186 C65.6445608,94.5171847 64.8659939,94.8261231 64.06,94.8106008 L3.92,94.57 C2.26314575,94.57 0.92,93.2268542 0.92,91.57 L0.92,41.62 C0.92,39.55 1.45,38.51 1.98,37.99 C2.51,37.47 8.84,34.87 8.84,34.87 C11.1134119,33.7536056 13.2396313,32.3596386 15.17,30.72 C17.28,28.64 17.28,27.08 17.28,27.08" id="Path" stroke="#005699" stroke-width="3" stroke-linecap="round" stroke-linejoin="round"></path>
                                <path d="M34.65,0.85 C34.65,0.85 12.84,0.34 12.84,3.45 C12.84,6.56 11.84,9.68 13.84,15.92 C15.84,22.16 17,23.71 17,27.34 C23.23,24.74 34.14,25.26 34.14,25.26" id="Path" stroke="#005699" stroke-width="3" stroke-linecap="round" stroke-linejoin="round"></path>
                                <path d="M33.35,0.85 C33.35,0.85 55.16,0.34 55.16,3.45 C55.16,6.56 56.16,9.68 54.16,15.92 C52.16,22.16 51,23.71 51,27.34 C44.77,24.74 33.86,25.26 33.86,25.26" id="Path" stroke="#005699" stroke-width="3" stroke-linecap="round" stroke-linejoin="round"></path>
                                <rect id="Rectangle" fill="#FFFFFF" fill-rule="nonzero" x="11" y="44.18" width="46" height="40" rx="6"></rect>
                            </g>
                        </g>
                    </g>
                </g>
            </g>
        </g>
    </g>
</svg>