<?xml version="1.0" encoding="UTF-8"?>
<svg width="84px" height="92px" viewBox="0 0 84 92" version="1.1" xmlns="http://www.w3.org/2000/svg" xmlns:xlink="http://www.w3.org/1999/xlink">
    <title>DCF6969F-A219-4651-B26E-D2D96BFBCBBD</title>
    <g id="Content-Hub" stroke="none" stroke-width="1" fill="none" fill-rule="evenodd">
        <g id="content-hub-desktop/default" transform="translate(-466.000000, -411.000000)">
            <g id="cateogries" transform="translate(308.000000, 397.000000)">
                <g id="d/content-hub/category-icon+label" transform="translate(141.000000, 0.000000)">
                    <g id="d/content-hub/category-icon-label">
                        <g id="d/content-hub/category-icon/home">
                            <g id="home-fragrance" transform="translate(18.000000, 16.000000)">
                                <polygon id="Path" fill="#B9D1ED" fill-rule="nonzero" points="65.42 6.76 65.09 13.11 74.06 16.86 81.39 21.23 81 14.04 73 9.04"></polygon>
                                <polygon id="Path" fill="#B9D1ED" fill-rule="nonzero" points="25.51 5.45 28.61 11.32 34 11.04 37.89 3.66"></polygon>
                                <polygon id="Path" fill="#B9D1ED" fill-rule="nonzero" points="43.76 4.15 47 11.04 53 10.04 54 5.04"></polygon>
                                <polygon id="Path" fill="#B9D1ED" fill-rule="nonzero" points="12.97 7.41 4.34 11.48 0.59 16.04 2.5 19.54 6.45 17.34 14.5 13.54 16.23 13.11 16.5 8.54 15.5 6.54"></polygon>
                                <path d="M0.59,20.23 C0.59,20.23 45.45,39.51 81.39,21.23 C81.33,48.68 80.74,76.92 80.74,76.92 L66.89,83.68 L40.33,88 L22.91,85.2 L9.23,81.42 L1.33,77.42 L1.41,67.23 L0.59,20.23 Z" id="Path" fill="#B9D1ED" fill-rule="nonzero"></path>
                                <path d="M0.63,22 C0.63,33.67 0.63,62.26 0.63,73.93 C0.585998778,75.6659179 1.31943102,77.3308091 2.63,78.47 C4.88272042,80.3997937 7.48237076,81.882884 10.29,82.84 C18.6741941,85.8768076 27.4870331,87.5644443 36.4,87.84 C42.1771923,88.111395 47.967085,87.8637348 53.7,87.1 C58.9788356,86.4729876 64.1836407,85.3308778 69.24,83.69 C72.5781429,82.7023441 75.72807,81.1645578 78.56,79.14 C80.4003018,77.8721138 81.4671744,75.7534481 81.39,73.52 C81.3,62.23 81.33,34.03 81.39,22.74" id="Path" stroke="#005699" stroke-width="3"></path>
                                <path d="M81.36,69.12 C81.36,57.83 81.3,29.63 81.36,18.34 C81.4371744,16.1065519 80.3703018,13.9878862 78.53,12.72 C75.6956897,10.6994395 72.5464551,9.16199133 69.21,8.17 C64.1633651,6.53102703 58.9686994,5.38893742 53.7,4.76 C47.9534131,3.99887866 42.1495753,3.76123594 36.36,4.05 C27.4459493,4.31572323 18.6315686,6.00365519 10.25,9.05 C7.44283579,10.003435 4.84311716,11.4831704 2.59,13.41 C1.27943102,14.5491909 0.545998778,16.2140821 0.59,17.95 C0.59,29.62 0.59,58.21 0.59,69.88" id="Path" stroke="#005699" stroke-width="3"></path>
                                <path d="M0.22,19.05 C2.62905304,21.1548596 5.42419869,22.771493 8.45,23.81 C17.4276204,27.131547 26.8825819,28.982018 36.45,29.29 C42.6641666,29.5903974 48.8927648,29.3293385 55.06,28.51 C60.7293295,27.8246023 66.3166864,26.5785011 71.74,24.79 C75.3293882,23.6940288 78.7095901,22.0039278 81.74,19.79" id="Path" stroke="#005699" stroke-width="3"></path>
                                <path d="M81.36,71.42 C81.36,71.42 81.3,35.93 81.36,24.64 C81.4508104,22.4052521 80.3950492,20.2786474 78.56,19 C75.72807,16.9754422 72.5781429,15.4376559 69.24,14.45 C64.1829517,12.8159083 58.97816,11.6805 53.7,11.06 C47.9532819,10.3005471 42.1498964,10.0595761 36.36,10.34 C27.4470331,10.6155557 18.6341941,12.3031924 10.25,15.34 C7.44237076,16.297116 4.84272042,17.7802063 2.59,19.71 C1.27943102,20.8491909 0.545998778,22.5140821 0.59,24.25 C0.59,35.92 0.59,72.18 0.59,72.18" id="Path" stroke="#005699" stroke-width="2"></path>
                                <path d="M45.94,7.21 C44.4622274,4.6952056 42.8115897,2.28607647 41,7.10542736e-15 C41,7.10542736e-15 36.58,5.55 35.2,9 C34.9621828,9.53147593 34.816764,10.0996235 34.77,10.68 L34.77,10.68 C34.77,13.59 37.56,16 41,16 C44.44,16 47.23,13.64 47.23,10.73 C47.1554784,9.94031892 46.9279108,9.17270285 46.56,8.47 C46.38,8 46.17,7.62 45.94,7.21 Z" id="Path" stroke="#005699" stroke-width="3" fill="#FFFFFF" fill-rule="nonzero" stroke-linejoin="round"></path>
                                <path d="M17.61,36.77 C25.84,38.46 46.67,41.77 64.26,37.11 C65.1544987,36.8823055 66.1040175,37.0790529 66.8343923,37.6434335 C67.5647671,38.207814 67.9946808,39.0769916 67.9999988,40 L67.9999988,69 C67.9999988,77.78 13.9999988,76.78 13.9999988,69 L13.9999988,39.71 C13.9991958,38.8068832 14.405285,37.9514581 15.1055537,37.3811561 C15.8058224,36.8108542 16.7257494,36.5863658 17.61,36.77 Z" id="Path" fill="#FFFFFF" fill-rule="nonzero"></path>
                                <line x1="41" y1="16.04" x2="41" y2="20.54" id="Path" stroke="#005699" stroke-width="3" stroke-linecap="round"></line>
                                <path d="M63.94,7.21 C62.4622274,4.6952056 60.8115897,2.28607647 59,0 C59,0 54.58,5.55 53.2,9 C52.9621828,9.53147593 52.816764,10.0996235 52.77,10.68 L52.77,10.68 C52.77,13.59 55.56,16 59,16 C62.44,16 65.23,13.64 65.23,10.73 C65.1554784,9.94031892 64.9279108,9.17270285 64.56,8.47 C64.38,8 64.17,7.62 63.94,7.21 Z" id="Path" stroke="#005699" stroke-width="3" fill="#FFFFFF" fill-rule="nonzero" stroke-linejoin="round"></path>
                                <line x1="59" y1="16.04" x2="59" y2="20.54" id="Path" stroke="#005699" stroke-width="3" stroke-linecap="round"></line>
                                <path d="M27.94,7.21 C26.4622274,4.6952056 24.8115897,2.28607647 23,0 C23,0 18.58,5.55 17.2,9 C16.9621828,9.53147593 16.816764,10.0996235 16.77,10.68 L16.77,10.68 C16.77,13.59 19.56,16 23,16 C26.44,16 29.23,13.64 29.23,10.73 C29.1554784,9.94031892 28.9279108,9.17270285 28.56,8.47 C28.38,8 28.17,7.62 27.94,7.21 Z" id="Path" stroke="#005699" stroke-width="3" fill="#FFFFFF" fill-rule="nonzero" stroke-linejoin="round"></path>
                                <line x1="23" y1="16.04" x2="23" y2="20.54" id="Path" stroke="#005699" stroke-width="3" stroke-linecap="round"></line>
                            </g>
                        </g>
                    </g>
                </g>
            </g>
        </g>
    </g>
</svg>